# Blender 4.2.2 LTS
# www.blender.org
o Cube
v -0.600393 0.135769 -15.644651
v -0.773183 0.565169 -15.768214
v -0.924607 0.236433 -18.312206
v -0.720290 0.658192 -18.184481
v 0.784105 0.134621 -15.432668
v 0.604046 0.566282 -15.804839
v 1.061413 0.220646 -17.792961
v 0.942952 0.645896 -17.780033
v 0.000000 0.255020 -18.610004
v 0.000000 0.671096 -18.449871
v 0.000000 0.127484 -15.225298
v 0.000000 0.555793 -15.459820
v -0.951304 0.115522 -16.797447
v -1.000000 0.596004 -16.782436
v 1.000000 0.170754 -16.795366
v 1.000000 0.596004 -16.782436
v -0.227104 0.691839 -16.779524
v 0.000000 0.050558 -16.799021
v -0.773183 0.343513 -15.477634
v -1.000000 0.449057 -18.305742
v 1.184750 0.433271 -17.786497
v 0.913599 0.342364 -15.439849
v 0.000000 0.336046 -15.232030
v 0.000000 0.467645 -18.603540
v 1.000000 0.383379 -16.788902
v -1.146878 0.383379 -16.788902
v 0.260231 0.760289 -17.823511
v -1.000000 0.676842 -17.510239
v 0.947754 0.553569 -17.407711
v 0.948860 0.136745 -17.461708
v -0.886651 0.162246 -17.491262
v 0.274072 0.078750 -17.819477
v -0.435119 0.607188 -15.971948
v -0.536723 1.019031 -15.983651
v -0.648911 0.718213 -17.130617
v -0.497910 1.113361 -17.054382
v 0.493253 0.573531 -15.958725
v 0.386856 0.987869 -15.996468
v 0.682301 0.655407 -16.948908
v 0.616980 1.061712 -16.912848
v -0.028223 0.715621 -17.344568
v -0.014437 1.109721 -17.202909
v -0.032806 0.584593 -15.876581
v -0.018581 0.991262 -15.875730
v -0.671008 0.598952 -16.379461
v -0.687713 1.056031 -16.338573
v 0.639326 0.605590 -16.374636
v 0.653442 1.009116 -16.338573
v -0.166245 1.128841 -16.330448
v -0.035241 0.514991 -16.384829
v -0.544105 0.807990 -15.897733
v -0.692410 0.921745 -17.112585
v 0.772066 0.854277 -16.930878
v 0.586972 0.767242 -15.884510
v -0.025895 0.782181 -15.811784
v -0.021165 0.917384 -17.326538
v 0.646384 0.807353 -16.356606
v -0.793264 0.857713 -16.356606
v 0.162940 1.185726 -16.821726
v -0.684938 1.135351 -16.717575
v 0.617081 0.972432 -16.690599
v 0.603990 0.576973 -16.740499
v -0.626013 0.644301 -16.749020
v 0.149596 0.538619 -16.870802
v 0.590510 0.626704 -17.050272
v 0.593028 0.859163 -17.018913
v 0.128651 0.718511 -17.264425
v 0.206986 0.939943 -17.281364
v 0.755458 0.609756 -17.300682
v 0.747599 0.844278 -17.274141
v 0.424868 0.681829 -17.585215
v 0.451163 0.910032 -17.552530
v 0.157213 0.724127 -17.484249
v 0.235883 0.942939 -17.448328
v 0.694869 0.612541 -17.137705
v 0.721967 0.842056 -17.135025
v 0.397197 0.631896 -17.082535
v 0.436807 0.888754 -17.061165
v 0.628096 0.638885 -17.438400
v 0.668090 0.865723 -17.427410
v 0.535199 0.930975 -17.200222
v 0.501150 0.586284 -17.258385
v 0.611103 0.737842 -16.999870
v 0.139930 0.832799 -17.245123
v 0.459128 0.793829 -17.602304
v 0.811008 0.717414 -17.305637
v 0.731994 0.722406 -17.121168
v 0.177210 0.837546 -17.478752
v 0.648093 0.752304 -17.432905
v 0.399825 0.777026 -17.039764
v 0.413234 0.976517 -17.405291
v 0.300993 0.943239 -17.150356
v 0.528552 0.853951 -17.501366
v 0.484069 0.632023 -17.515785
v 0.270236 0.667077 -17.181530
v 0.353978 0.612550 -17.423378
v 0.733534 0.131285 -15.144932
v 0.732617 0.293455 -15.110616
v 0.399168 0.139637 -14.997433
v 0.408809 0.303251 -15.026222
v 0.679302 0.139332 -15.349957
v 0.670869 0.301689 -15.312328
v 0.370251 0.149738 -15.305546
v 0.381395 0.311805 -15.283342
v 0.296039 0.146984 -15.115173
v 0.333919 0.308814 -15.119507
v 0.736937 0.133981 -15.241558
v 0.732526 0.297058 -15.233769
v 0.626500 0.111639 -15.059192
v 0.635554 0.295261 -15.046658
v 0.545310 0.144289 -15.345942
v 0.551475 0.307055 -15.341185
v 0.604451 0.336500 -15.159405
v 0.585608 0.092387 -15.200024
v 0.760755 0.211151 -15.121944
v 0.405420 0.220575 -14.983951
v 0.368148 0.231848 -15.321330
v 0.693815 0.220980 -15.371485
v 0.754065 0.214949 -15.243206
v 0.299122 0.228367 -15.112795
v 0.548393 0.225672 -15.343564
v 0.638647 0.213012 -15.027406
v 0.436132 0.353536 -15.188402
v 0.521203 0.316858 -15.013148
v 0.448739 0.282067 -15.304524
v 0.438293 0.122180 -15.308121
v 0.512629 0.120859 -15.036628
v 0.428281 0.092967 -15.198803
vn -0.8359 0.5392 -0.1031
vn 0.4900 0.5462 -0.6793
vn 0.7316 0.6598 0.1717
vn -0.2186 0.7430 0.6326
vn 0.0734 -0.9971 0.0192
vn -0.0727 0.9937 0.0852
vn 0.0609 0.9952 0.0763
vn -0.0587 -0.9973 0.0431
vn 0.1825 0.8305 0.5263
vn -0.2477 0.6479 -0.7203
vn -0.0726 -0.9876 -0.1394
vn 0.1677 0.9850 -0.0414
vn -0.0727 0.9938 -0.0835
vn 0.1799 -0.9522 -0.2468
vn 0.8032 0.5871 0.1011
vn -0.8630 0.4465 0.2364
vn -0.7337 -0.6460 0.2106
vn 0.9120 -0.4014 0.0847
vn -0.2951 -0.0233 -0.9552
vn 0.2377 -0.0415 0.9705
vn -0.3896 -0.4673 0.7937
vn 0.9512 -0.2928 0.0977
vn 0.5793 -0.1436 -0.8024
vn -0.8325 -0.5479 -0.0824
vn -0.0782 0.9950 0.0623
vn 0.1447 0.9881 0.0531
vn -0.0792 -0.9951 -0.0591
vn 0.1022 -0.9946 0.0169
vn -0.8865 0.4395 -0.1448
vn 0.4175 0.4372 -0.7966
vn 0.8154 0.4529 0.3606
vn -0.1563 0.3367 0.9286
vn 0.0691 -0.9963 0.0512
vn -0.0682 0.9698 0.2343
vn 0.1197 0.9701 0.2112
vn -0.1111 -0.9874 0.1128
vn 0.1753 0.4393 0.8811
vn -0.2527 0.5191 -0.8165
vn -0.1344 -0.9589 -0.2498
vn 0.2532 0.9660 -0.0532
vn -0.0605 0.9889 -0.1358
vn 0.1479 -0.9189 -0.3657
vn 0.8993 0.4170 0.1317
vn -0.8410 0.3060 0.4461
vn -0.7762 -0.4775 0.4117
vn 0.9375 -0.3330 0.1005
vn -0.3136 0.0561 -0.9479
vn 0.1177 -0.3592 0.9258
vn -0.1983 -0.3678 0.9085
vn 0.9388 -0.2845 0.1941
vn 0.4634 -0.0323 -0.8856
vn -0.9188 -0.3756 -0.1217
vn -0.0803 0.9890 0.1242
vn 0.2418 0.9644 0.1071
vn -0.1426 -0.9828 -0.1176
vn 0.1104 -0.9936 0.0252
vn -0.5879 0.3099 0.7472
vn -0.3339 0.3874 -0.8593
vn 0.7587 0.2309 -0.6092
vn 0.6900 0.1763 0.7020
vn 0.0743 -0.9919 -0.1034
vn 0.2283 0.9279 0.2947
vn 0.3794 0.9252 0.0050
vn -0.0263 -0.9791 0.2015
vn 0.9211 0.2532 0.2957
vn -0.8548 0.5021 -0.1315
vn -0.4308 -0.9024 -0.0092
vn 0.2121 0.9100 -0.3563
vn -0.1553 0.9873 0.0329
vn -0.2806 -0.8318 -0.4790
vn 0.6190 0.2139 -0.7557
vn -0.1818 0.1824 0.9663
vn -0.2002 -0.3187 0.9265
vn 0.5730 -0.2361 -0.7848
vn -0.9790 0.1496 -0.1387
vn 0.8543 -0.3827 0.3518
vn 0.6044 -0.3713 0.7049
vn 0.6323 -0.2143 -0.7445
vn -0.3722 0.0419 -0.9272
vn -0.6136 -0.1857 0.7675
vn 0.1015 0.9656 0.2393
vn 0.3698 0.8981 -0.2379
vn -0.3014 -0.9490 0.0921
vn 0.0843 -0.9801 -0.1798
vn 0.1369 0.2053 0.9691
vn -0.9042 0.3249 -0.2772
vn 0.0168 0.3567 -0.9341
vn 0.9565 0.2912 -0.0177
vn 0.0840 -0.9647 -0.2495
vn 0.2645 0.9532 0.1462
vn 0.1477 0.9763 -0.1581
vn 0.2441 -0.9693 0.0291
vn 0.7962 0.4064 -0.4483
vn -0.7157 0.3492 0.6048
vn -0.1872 -0.9626 0.1960
vn -0.2299 0.9328 -0.2775
vn -0.1892 0.9465 0.2616
vn -0.4472 -0.8674 -0.2182
vn -0.1822 0.3161 -0.9311
vn 0.5811 0.1488 0.8001
vn 0.5962 -0.3481 0.7234
vn -0.1830 -0.1351 -0.9738
vn -0.7626 -0.0193 0.6465
vn 0.8663 -0.2316 -0.4426
vn 0.9645 -0.2630 -0.0224
vn -0.1165 -0.1035 -0.9878
vn -0.9408 -0.0221 -0.3382
vn 0.1913 -0.2875 0.9385
vn 0.1357 0.9688 0.2074
vn -0.0367 0.9480 -0.3162
vn -0.0214 -0.9865 0.1623
vn 0.0323 -0.9514 -0.3062
vt 0.802834 0.188451
vt 0.762878 0.201769
vt 0.755123 0.102527
vt 0.758999 0.043675
vt 0.801853 0.000000
vt 0.805535 0.701426
vt 0.765587 0.704799
vt 0.755123 0.570423
vt 0.793617 0.531660
vt 0.388367 0.271585
vt 0.391451 0.271504
vt 0.440849 0.450329
vt 0.376439 0.509119
vt 0.531357 0.563792
vt 0.539125 0.522766
vt 0.679915 0.484390
vt 0.670892 0.536391
vt 0.201823 0.318360
vt 0.376439 0.301026
vt 0.361661 0.543238
vt 0.227938 0.592844
vt 0.606501 0.296112
vt 0.739685 0.311671
vt 0.035109 0.334206
vt 0.115791 0.529633
vt 0.793309 0.884286
vt 0.755123 0.838511
vt 0.013899 0.067895
vt 0.170650 -0.000000
vt 0.232557 0.135065
vt 0.034602 0.211411
vt 0.421625 0.098170
vt 0.599274 0.000000
vt 0.543075 0.103639
vt 0.412122 0.163612
vt 0.719310 0.060881
vt 0.755123 0.184125
vt 0.370256 0.125148
vt 0.356437 0.185684
vt 0.376439 0.093395
vt 0.791290 0.407118
vt 0.755123 0.363932
vt 0.825770 0.407953
vt 0.845997 0.214246
vt 0.882372 0.205780
vt 0.923894 0.212345
vt 0.903309 0.362233
vt 0.867089 0.363945
vt 0.861857 0.252988
vt 0.830765 0.873956
vt 0.842521 0.703979
vt 0.735765 0.702822
vt 0.699522 0.723512
vt 0.699522 0.564285
vt 0.736215 0.563792
vt 0.812233 0.531660
vt 0.775872 0.526833
vt 0.887008 0.575553
vt 0.845997 0.570722
vt 0.845997 0.001712
vt 0.882217 0.000000
vt -0.000000 0.336736
vt -0.000000 0.068494
vt 0.276795 0.684462
vt 0.239189 0.691462
vt 0.233551 0.638626
vt 0.239043 0.615177
vt 0.278961 0.592844
vt 0.885611 0.694652
vt 0.848702 0.698146
vt 0.845997 0.602310
vt 0.881810 0.575553
vt 0.956505 0.798411
vt 0.921159 0.797524
vt 0.926907 0.728116
vt 0.966450 0.750686
vt 0.964041 0.649281
vt 0.926903 0.655115
vt 0.921159 0.583187
vt 0.958778 0.575553
vt 0.488432 0.734088
vt 0.606754 0.731837
vt 0.583120 0.805845
vt 0.491003 0.822703
vt 0.150974 0.682930
vt 0.144035 0.592844
vt 0.208322 0.615370
vt 0.233551 0.705031
vt 0.160169 0.828031
vt 0.217177 0.777473
vt 0.376439 0.737356
vt 0.419773 0.807698
vt 0.881756 0.818209
vt 0.845997 0.786909
vt 0.376439 0.604322
vt 0.484548 0.563792
vt 0.518580 0.647667
vt 0.382480 0.671857
vt 0.058651 0.828031
vt -0.000000 0.720534
vt 0.068259 0.745788
vt 0.098349 0.826533
vt 0.020327 0.634098
vt 0.076980 0.596921
vt 0.611472 0.630367
vt 0.598931 0.668021
vt 0.671206 0.681281
vt 0.699522 0.670278
vt 0.684465 0.707905
vt 0.692524 0.766700
vt 0.657892 0.766924
vt 0.268249 0.774511
vt 0.233551 0.756482
vt 0.301191 0.783674
vt 0.318226 0.703943
vt 0.633352 0.676007
vt 0.623260 0.767148
vt 0.616611 0.706034
vt 0.917387 0.810515
vt 0.921159 0.695596
vt 1.000000 0.742650
vt 0.998364 0.654001
vt 0.291247 0.841283
vt 0.255661 0.843698
vt 0.648657 0.840248
vt 0.611472 0.825516
vt 0.611472 0.564016
vt 0.646104 0.563792
vt 0.313094 0.602382
vt 0.316994 0.658189
vt 0.341471 0.677702
vt 0.321626 0.674924
vt 0.318226 0.646245
vt 0.324432 0.618661
vt 0.344058 0.619948
vt 0.542018 0.822703
vt 0.562724 0.828125
vt 0.562441 0.869864
vt 0.541806 0.876789
vt 0.344612 0.748217
vt 0.364744 0.749690
vt 0.362795 0.780088
vt 0.344008 0.780224
vt 0.341933 0.863751
vt 0.320994 0.860912
vt 0.321626 0.831220
vt 0.342809 0.834921
vt 0.881560 0.891517
vt 0.920570 0.891578
vt 0.913192 0.923946
vt 0.883579 0.931381
vt 0.422775 0.890004
vt 0.452568 0.887914
vt 0.445276 0.915789
vt 0.416254 0.925476
vt 0.376439 0.891354
vt 0.392804 0.917165
vt 0.845997 0.893636
vt 0.860592 0.924873
vt 0.338965 0.890980
vt 0.318226 0.876064
vt 0.326693 0.599552
vt 0.347220 0.592844
vt 0.845997 0.836003
vt 0.880685 0.818209
vt 0.890892 0.853588
vt 0.847846 0.865137
vt 0.376439 0.846786
vt 0.411235 0.822703
vt 0.402260 0.852834
vt 0.377402 0.863906
vt 0.439214 0.832965
vt 0.450934 0.858631
vt 0.921769 0.847219
vt 0.917354 0.863075
vt 0.345708 0.707562
vt 0.364744 0.714260
vt 0.357800 0.728236
vt 0.318226 0.809827
vt 0.338603 0.804613
vt 0.361894 0.702581
vt 0.341074 0.707562
vt 0.367437 0.676917
vt 0.325017 0.708755
vt 0.324480 0.746744
vt 0.318226 0.724394
vt 0.364466 0.620230
vt 0.367437 0.593973
vt 0.323313 0.777963
vt 0.339833 0.804613
vt 0.319721 0.800155
vt 0.361444 0.861539
vt 0.361807 0.838029
vt 0.521797 0.822845
vt 0.521797 0.873471
vt 0.367307 0.648597
vt 0.504139 0.862534
vt 0.489543 0.862140
vt 0.487724 0.841304
vt 0.491416 0.825168
vt 0.506480 0.822703
vt 0.473338 0.822703
vt 0.487724 0.827995
vt 0.484996 0.843145
vt 0.469964 0.843452
vt 0.471579 0.875136
vt 0.485784 0.874630
vt 0.487724 0.893740
vt 0.472683 0.901128
vt 0.578323 0.847612
vt 0.591358 0.846668
vt 0.590178 0.866672
vt 0.577400 0.867756
vt 0.725089 0.776593
vt 0.752155 0.776286
vt 0.746764 0.799247
vt 0.725721 0.804162
vt 0.732375 0.851034
vt 0.753344 0.850243
vt 0.748189 0.870018
vt 0.727670 0.876972
vt 0.699522 0.852917
vt 0.711092 0.871156
vt 0.699522 0.777185
vt 0.709446 0.799231
vt 0.577366 0.822703
vt 0.589873 0.829737
vt 0.014539 0.857436
vt 0.000018 0.851452
vt 0.000000 0.830397
vt 0.014529 0.828031
vt 0.699522 0.735741
vt 0.724215 0.723512
vt 0.731962 0.749794
vt 0.700898 0.756806
vt 0.699522 0.821336
vt 0.724122 0.804162
vt 0.717896 0.824550
vt 0.700131 0.834055
vt 0.743903 0.811348
vt 0.752236 0.829110
vt 0.753220 0.744705
vt 0.750341 0.756404
vt 0.480528 0.855854
vt 0.501593 0.889156
vt 0.487724 0.882402
vt 0.515612 0.888220
vt 0.521603 0.865033
vt 0.456180 0.844059
vt 0.457374 0.875641
vt 0.452568 0.856054
vt 0.028823 0.855580
vt 0.028846 0.828031
vt 0.562724 0.826233
vt 0.563776 0.847738
vt 0.562724 0.863198
vt 0.458824 0.898656
vt 0.459133 0.823208
vt 0.520536 0.824270
vt 0.521797 0.845378
s 0
f 26/1/1 14/2/1 28/3/1 4/4/1 20/5/1
f 24/6/2 10/7/2 8/8/2 21/9/2
f 25/10/3 16/11/3 6/12/3 22/13/3
f 23/14/4 12/15/4 2/16/4 19/17/4
f 18/18/5 15/19/5 5/20/5 11/21/5
f 17/22/6 14/23/6 2/16/6 12/15/6
f 16/11/7 17/22/7 12/15/7 6/12/7
f 13/24/8 18/18/8 11/21/8 1/25/8
f 22/13/9 6/12/9 12/15/9 23/14/9
f 20/26/10 4/27/10 10/7/10 24/6/10
f 3/28/11 9/29/11 32/30/11 31/31/11
f 8/32/12 10/33/12 27/34/12 29/35/12
f 10/33/13 4/36/13 28/37/13 27/34/13
f 9/29/14 7/38/14 30/39/14 32/30/14
f 21/40/15 8/32/15 29/35/15 16/11/15 25/10/15
f 19/41/16 2/42/16 14/2/16 26/1/16
f 1/43/17 19/41/17 26/1/17 13/44/17
f 7/45/18 21/46/18 25/47/18 15/48/18 30/49/18
f 3/50/19 20/26/19 24/6/19 9/51/19
f 5/52/20 22/53/20 23/54/20 11/55/20
f 11/56/21 23/57/21 19/41/21 1/43/21
f 15/48/22 25/47/22 22/58/22 5/59/22
f 9/60/23 24/61/23 21/46/23 7/45/23
f 13/24/24 26/62/24 20/63/24 3/28/24 31/31/24
f 27/34/25 28/37/25 14/23/25 17/22/25
f 29/35/26 27/34/26 17/22/26 16/11/26
f 31/31/27 32/30/27 18/18/27 13/24/27
f 32/30/28 30/39/28 15/19/28 18/18/28
f 58/64/29 46/65/29 60/66/29 36/67/29 52/68/29
f 56/69/30 42/70/30 40/71/30 53/72/30
f 57/73/31 48/74/31 38/75/31 54/76/31
f 55/77/32 44/78/32 34/79/32 51/80/32
f 50/81/33 47/82/33 37/83/33 43/84/33
f 49/85/34 46/86/34 34/87/34 44/88/34
f 48/89/35 49/85/35 44/88/35 38/90/35
f 45/91/36 50/81/36 43/84/36 33/92/36
f 54/76/37 38/75/37 44/78/37 55/77/37
f 52/93/38 36/94/38 42/70/38 56/69/38
f 35/95/39 41/96/39 64/97/39 63/98/39
f 40/99/40 42/100/40 59/101/40 61/102/40
f 42/100/41 36/103/41 60/104/41 59/101/41
f 41/96/42 39/105/42 62/106/42 64/97/42
f 53/107/43 40/108/43 61/109/43 48/110/43 57/111/43
f 51/112/44 34/113/44 46/65/44 58/64/44
f 33/114/45 51/112/45 58/64/45 45/115/45
f 39/116/46 53/107/46 57/111/46 47/117/46 62/118/46
f 35/119/47 52/93/47 56/69/47 41/120/47
f 37/121/48 54/76/48 55/77/48 43/122/48
f 43/123/49 55/124/49 51/112/49 33/114/49
f 47/117/50 57/111/50 54/125/50 37/126/50
f 41/127/51 56/128/51 53/107/51 39/116/51
f 45/115/52 58/64/52 52/68/52 35/129/52 63/130/52
f 59/101/53 60/104/53 46/86/53 49/85/53
f 61/102/54 59/101/54 49/85/54 48/89/54
f 63/98/55 64/97/55 50/81/55 45/91/55
f 64/97/56 62/106/56 47/82/56 50/81/56
f 90/131/57 78/132/57 92/133/57 68/134/57 84/135/57
f 88/136/58 74/137/58 72/138/58 85/139/58
f 89/140/59 80/141/59 70/142/59 86/143/59
f 87/144/60 76/145/60 66/146/60 83/147/60
f 82/148/61 79/149/61 69/150/61 75/151/61
f 81/152/62 78/153/62 66/154/62 76/155/62
f 80/156/63 81/152/63 76/155/63 70/157/63
f 77/158/64 82/148/64 75/151/64 65/159/64
f 86/160/65 70/161/65 76/145/65 87/144/65
f 84/135/66 68/134/66 74/162/66 88/163/66
f 67/164/67 73/165/67 96/166/67 95/167/67
f 72/168/68 74/169/68 91/170/68 93/171/68
f 74/169/69 68/172/69 92/173/69 91/170/69
f 73/165/70 71/174/70 94/175/70 96/166/70
f 85/176/71 72/177/71 93/178/71 80/141/71 89/140/71
f 83/147/72 66/146/72 78/179/72 90/180/72
f 65/181/73 83/182/73 90/131/73 77/183/73
f 71/184/74 85/176/74 89/140/74 79/185/74 94/186/74
f 67/187/75 84/135/75 88/163/75 73/188/75
f 69/189/76 86/143/76 87/190/76 75/191/76
f 75/192/77 87/144/77 83/147/77 65/193/77
f 79/185/78 89/140/78 86/143/78 69/189/78
f 73/194/79 88/136/79 85/139/79 71/195/79
f 77/183/80 90/131/80 84/135/80 67/187/80 95/196/80
f 91/170/81 92/173/81 78/153/81 81/152/81
f 93/171/82 91/170/82 81/152/82 80/156/82
f 95/167/83 96/166/83 82/148/83 77/158/83
f 96/166/84 94/175/84 79/149/84 82/148/84
f 122/197/85 110/198/85 124/199/85 100/200/85 116/201/85
f 120/202/86 106/203/86 104/204/86 117/205/86
f 121/206/87 112/207/87 102/208/87 118/209/87
f 119/210/88 108/211/88 98/212/88 115/213/88
f 114/214/89 111/215/89 101/216/89 107/217/89
f 113/218/90 110/219/90 98/220/90 108/221/90
f 112/222/91 113/218/91 108/221/91 102/223/91
f 109/224/92 114/214/92 107/217/92 97/225/92
f 118/226/93 102/227/93 108/211/93 119/210/93
f 116/228/94 100/229/94 106/230/94 120/231/94
f 99/232/95 105/233/95 128/234/95 127/235/95
f 104/236/96 106/237/96 123/238/96 125/239/96
f 106/237/97 100/240/97 124/241/97 123/238/97
f 105/233/98 103/242/98 126/243/98 128/234/98
f 117/205/99 104/204/99 125/244/99 112/207/99 121/206/99
f 115/245/100 98/246/100 110/198/100 122/197/100
f 97/247/101 115/245/101 122/197/101 109/248/101
f 103/249/102 117/205/102 121/206/102 111/250/102 126/251/102
f 99/252/103 116/228/103 120/231/103 105/253/103
f 101/254/104 118/226/104 119/210/104 107/255/104
f 107/255/105 119/210/105 115/213/105 97/256/105
f 111/250/106 121/206/106 118/209/106 101/257/106
f 105/258/107 120/202/107 117/205/107 103/249/107
f 109/248/108 122/197/108 116/201/108 99/259/108 127/260/108
f 123/238/109 124/241/109 110/219/109 113/218/109
f 125/239/110 123/238/110 113/218/110 112/222/110
f 127/235/111 128/234/111 114/214/111 109/224/111
f 128/234/112 126/243/112 111/215/112 114/214/112
