# Blender 4.2.2 LTS
# www.blender.org
o Cube
v -0.505871 0.074009 0.884721
v -0.628790 2.724190 0.745838
v -0.875614 0.074009 -0.606352
v -0.527164 2.765410 -0.529464
v 0.537571 0.074009 0.691170
v 0.545128 2.961221 0.680086
v 0.560980 0.074009 -0.745478
v 0.339768 2.898610 -0.287110
v -0.977404 0.074009 0.013570
v -0.965598 2.475688 0.009929
v 0.723486 0.074009 0.013570
v 0.558705 3.114608 0.276423
v -0.889511 1.735416 0.803059
v -0.808293 1.189003 -0.773808
v 0.730616 1.062685 -0.773808
v 0.743891 1.632631 0.944349
v 1.192316 1.573149 0.014625
v -1.188596 1.793729 0.014625
v -0.087734 0.074009 -0.877366
v -0.297740 2.912694 -0.344786
v 0.090628 0.074009 1.003273
v 0.005031 2.904831 1.014282
v -0.289464 3.089558 0.393886
v 0.090628 0.074009 0.013570
v 0.005007 1.593922 1.092250
v 0.005007 1.062685 -0.944917
v 2.296158 0.847108 -0.842209
v 2.164148 0.074009 -0.760056
v 2.481580 0.074009 0.013570
v 2.310908 1.159848 0.799513
v 2.142901 0.074009 0.729149
v 2.757859 1.062685 -0.164580
v 1.513387 1.062685 -1.184338
v 1.243695 0.074009 -1.128237
v 1.220285 0.074009 1.065999
v 1.526662 1.632631 0.963245
v 1.975088 1.669324 -0.164580
v 1.406200 0.074009 0.013570
v -1.015795 0.695961 -0.753857
v 0.586726 0.508189 -0.886027
v 0.628586 0.925227 0.903982
v -1.291005 0.970456 0.014625
v -0.726873 0.953134 0.934682
v -0.152922 0.656895 -1.054418
v 0.005007 0.857135 1.200259
v 2.362774 0.508189 -0.899876
v 2.347320 0.530317 0.873174
v 2.748988 0.685647 0.014625
v 1.369497 0.508189 -1.302329
v 1.264560 0.934651 1.230469
v -1.255642 0.074009 0.009079
v -0.765182 0.074009 1.021750
v -1.048014 0.272633 -0.859254
v -1.136718 0.074009 -0.775642
v -0.216207 0.074009 -1.229312
v 0.584948 0.272633 -1.008597
v 0.541710 0.074009 -1.045989
v 0.806166 0.436172 0.815774
v 0.597527 0.074009 0.883695
v -0.007821 0.074009 1.186536
v -1.248458 0.417837 0.009079
v -0.168751 0.272633 -1.194202
v -0.007821 0.378150 1.150547
v 2.279336 0.272633 -0.979649
v 2.299354 0.074009 -0.982141
v 2.747313 0.074009 0.009079
v 2.415469 0.291932 0.910205
v 2.389927 0.074009 0.870149
v 2.810137 0.327020 0.009079
v 1.339351 0.074009 -1.284747
v 1.395168 0.074009 1.237999
v 1.382589 0.272633 -1.278812
v -0.753605 0.406254 1.057049
v 1.447715 0.385839 1.211779
v -0.744518 2.247089 0.857703
v -0.731618 1.950302 -0.623304
v 0.809878 2.200203 -0.668465
v 0.688369 2.409465 0.954561
v 1.097918 2.453930 0.011379
v -1.034460 2.265097 0.011379
v -0.042368 2.400392 1.222937
v -0.016232 2.317410 -0.873370
vn -0.8132 0.2634 -0.5190
vn 0.1911 0.6366 -0.7472
vn 0.8225 0.4655 0.3268
vn -0.4712 0.3436 0.8124
vn -0.0000 -1.0000 -0.0000
vn -0.5874 0.7738 0.2370
vn -0.5898 0.7973 -0.1281
vn 0.5766 0.6583 -0.4838
vn -0.9025 0.2941 0.3147
vn -0.8925 0.0035 0.4511
vn -0.2293 0.0776 0.9703
vn -0.3054 0.1164 0.9451
vn 0.3974 0.1438 -0.9063
vn 0.2374 0.1471 -0.9602
vn -0.8596 0.1952 -0.4722
vn -0.2478 0.1953 -0.9489
vn 0.3085 0.0199 0.9510
vn -0.0186 0.9581 -0.2858
vn 0.0426 0.9521 0.3027
vn 0.3725 0.4138 0.8307
vn -0.2666 0.3769 -0.8871
vn 0.8834 -0.0083 -0.4685
vn 0.8972 0.1305 0.4219
vn 0.5688 0.7923 0.2206
vn 0.4746 0.6627 -0.5792
vn -0.2161 0.8761 -0.4309
vn -0.0653 0.9971 -0.0395
vn -0.4467 0.2915 -0.8458
vn -0.2323 0.2155 0.9485
vn -0.3919 0.1803 -0.9022
vn 0.3474 0.0599 -0.9358
vn -0.4823 -0.2540 0.8384
vn 0.2490 0.3715 -0.8944
vn 0.3415 0.1789 0.9227
vn -0.9585 0.0222 -0.2842
vn 0.3189 -0.0717 0.9451
vn -0.4348 0.2877 0.8533
vn -0.2997 0.1677 -0.9392
vn 0.9023 -0.2017 0.3811
vn 0.8943 -0.0823 -0.4398
vn 0.4093 0.0141 0.9123
vn -0.4012 0.0257 -0.9156
vn -0.9697 0.1406 -0.1997
vn 0.2353 0.1223 -0.9642
vn 0.3083 0.0022 -0.9513
vn -0.1693 0.0041 0.9856
vn -0.9022 0.0025 0.4314
vn 0.8813 0.2131 0.4219
vn 0.3314 0.1276 0.9348
vn 0.8991 0.0290 -0.4367
vn -0.8797 0.0377 0.4739
vn 0.4057 -0.0609 0.9120
vn -0.3219 0.2925 -0.9004
vn -0.2804 0.1127 -0.9532
vn 0.2739 -0.0676 0.9594
vn -0.9051 0.2577 0.3382
vn 0.8837 0.0303 -0.4670
vn -0.3766 -0.1016 0.9208
vn 0.9065 0.0802 0.4146
vn 0.2397 0.0658 -0.9686
vn -0.8180 0.2168 -0.5328
vt 0.070573 0.629465
vt 0.080780 0.602906
vt 0.175339 0.582294
vt 0.150629 0.688052
vt 0.292240 0.109555
vt 0.381146 0.088426
vt 0.381535 0.169325
vt 0.283788 0.219833
vt 0.817116 0.190640
vt 0.845633 0.087644
vt 0.899806 0.100262
vt 0.945258 0.157287
vt 0.721892 0.275021
vt 0.789082 0.276691
vt 0.768862 0.365857
vt 0.706307 0.376643
vt 0.597055 0.826752
vt 0.594068 0.745321
vt 0.682133 0.766045
vt 0.724402 0.822081
vt 0.101725 0.508019
vt 0.031909 0.543712
vt 0.051218 0.506780
vt 0.175117 0.555743
vt 0.483258 0.853907
vt 0.497167 0.769813
vt 0.424104 0.214467
vt 0.334303 0.277305
vt 0.000000 0.599760
vt 0.539509 0.375933
vt 0.641303 0.398501
vt 0.658096 0.469481
vt 0.552509 0.484933
vt 0.524341 0.276088
vt 0.467922 0.375766
vt 0.463526 0.281643
vt 0.620090 0.278134
vt 0.054224 0.280910
vt 0.127355 0.298142
vt 0.110167 0.408759
vt 0.066005 0.417828
vt 0.078159 0.100382
vt 0.132350 0.120313
vt 0.137650 0.215986
vt 0.064675 0.198958
vt 0.019802 0.791563
vt 0.047727 0.688912
vt 0.142021 0.788081
vt 0.113209 0.850066
vt 0.090337 0.004110
vt 0.152079 0.024841
vt 0.536895 0.213706
vt 0.627150 0.195335
vt 0.521849 0.954006
vt 0.602096 0.964177
vt 0.789082 0.075656
vt 0.799523 0.006318
vt 0.884539 0.000000
vt 0.957474 0.049305
vt 0.711963 0.899393
vt 0.998864 0.082130
vt 0.252059 0.033165
vt 0.357412 0.054808
vt 0.155985 0.487925
vt 0.113324 0.496375
vt 0.822116 0.493779
vt 0.789082 0.466242
vt 0.916749 0.418869
vt 0.942881 0.468612
vt 0.793578 0.339214
vt 0.945170 0.302544
vt 0.590845 0.657475
vt 0.444694 0.683774
vt 0.487724 0.563600
vt 0.585770 0.519104
vt 0.231618 0.386088
vt 0.727141 0.676429
vt 0.679443 0.559305
vt 0.230617 0.606300
vt 0.206978 0.506780
vt 0.282811 0.506834
vt 0.325091 0.629607
vt 0.840249 0.264116
vt 0.964841 0.219041
vt 0.206978 0.677102
vt 0.302024 0.700705
vt 0.501298 0.988402
vt 0.438579 0.872099
vt 0.534470 0.122339
vt 0.627268 0.099960
vt 0.290010 0.727326
vt 0.208443 0.711199
vt 0.458590 0.773711
vt 0.424104 0.672204
vt 0.034119 0.406702
vt 0.025210 0.285361
vt 0.748447 0.653115
vt 0.706623 0.757421
vt 0.475334 0.198016
vt 0.464418 0.103106
vt 0.748447 0.833883
vt 0.031716 0.196404
vt 0.025999 0.096748
vt 0.458510 0.547251
vt 0.487393 0.008985
vt 0.568965 0.014302
vt 0.111438 0.906360
vt 0.009236 0.859744
vt 0.424104 0.109453
vt 0.428950 0.005683
vt 0.456419 0.000000
vt 0.428000 0.221547
vt 0.005659 0.191429
vt 0.000000 0.281499
vt 0.839114 0.537585
vt 0.830058 0.526063
vt 0.952367 0.493306
vt 0.954466 0.505972
vt 0.009062 0.410775
vt 0.068078 0.506780
vt 0.036161 0.501171
vt 0.424104 0.281181
vt 0.091456 0.928734
vt 0.206978 0.910806
vt 0.202418 0.936985
vt 0.000000 0.902322
vt 0.000000 0.091333
vt 0.425746 0.379979
vt 0.481749 0.482111
vt 0.437667 0.484266
vt 0.696420 0.526854
vt 0.730818 0.932112
vt 0.602831 1.000000
vt 0.583938 0.484933
vt 0.034168 0.000000
vt 0.726593 0.198677
vt 0.718632 0.449246
vt 0.223579 0.296566
s 0
f 80/1/1 10/2/1 4/3/1 76/4/1
f 82/5/2 20/6/2 8/7/2 77/8/2
f 79/9/3 12/10/3 6/11/3 78/12/3
f 81/13/4 22/14/4 2/15/4 75/16/4
f 24/17/5 11/18/5 5/19/5 21/20/5
f 23/21/6 10/2/6 2/22/6 22/23/6
f 20/24/7 4/3/7 10/2/7 23/21/7
f 19/25/5 7/26/5 11/18/5 24/17/5
f 77/8/8 8/7/8 12/27/8 79/28/8
f 75/29/9 2/22/9 10/2/9 80/1/9
f 43/30/10 13/31/10 18/32/10 42/33/10
f 45/34/11 43/30/11 73/35/11 63/36/11
f 45/34/12 25/37/12 13/31/12 43/30/12
f 49/38/13 33/39/13 27/40/13 46/41/13
f 44/42/14 26/43/14 15/44/14 40/45/14
f 42/46/15 18/47/15 14/48/15 39/49/15
f 39/50/16 14/51/16 26/43/16 44/42/16
f 41/52/17 16/53/17 25/37/17 45/34/17
f 3/54/5 19/25/5 24/17/5 9/55/5
f 8/56/18 20/57/18 23/58/18 12/10/18
f 12/10/19 23/58/19 22/59/19 6/11/19
f 9/55/5 24/17/5 21/20/5 1/60/5
f 78/12/20 6/11/20 22/59/20 81/61/20
f 76/62/21 4/63/21 20/6/21 82/5/21
f 46/41/22 27/40/22 32/64/22 48/65/22
f 48/66/23 32/67/23 30/68/23 47/69/23
f 37/70/24 36/71/24 30/68/24 32/67/24
f 38/72/5 34/73/5 28/74/5 29/75/5
f 33/39/25 37/76/25 32/64/25 27/40/25
f 35/77/5 38/72/5 29/75/5 31/78/5
f 5/19/5 11/18/5 38/72/5 35/77/5
f 15/79/26 17/80/26 37/81/26 33/82/26
f 11/18/5 7/26/5 34/73/5 38/72/5
f 17/83/27 16/84/27 36/71/27 37/70/27
f 40/85/28 15/79/28 33/82/28 49/86/28
f 19/25/5 3/54/5 54/87/5 55/88/5
f 16/53/29 41/52/29 50/89/29 36/90/29
f 40/85/30 49/86/30 72/91/30 56/92/30
f 34/73/5 7/26/5 57/93/5 70/94/5
f 49/38/31 46/41/31 64/95/31 72/96/31
f 5/19/5 35/77/5 71/97/5 59/98/5
f 50/89/32 41/52/32 58/99/32 74/100/32
f 21/20/5 5/19/5 59/98/5 60/101/5
f 7/26/5 19/25/5 55/88/5 57/93/5
f 44/42/33 40/45/33 56/102/33 62/103/33
f 28/74/5 34/73/5 70/94/5 65/104/5
f 36/90/34 50/89/34 47/105/34 30/106/34
f 42/46/35 39/49/35 53/107/35 61/108/35
f 74/100/36 71/109/36 68/110/36 67/111/36
f 58/99/37 59/112/37 71/109/37 74/100/37
f 57/113/38 56/102/38 72/96/38 70/114/38
f 66/115/39 69/116/39 67/117/39 68/118/39
f 65/119/40 64/95/40 69/120/40 66/121/40
f 59/112/41 58/99/41 63/36/41 60/122/41
f 54/123/42 53/107/42 62/124/42 55/125/42
f 51/126/43 61/108/43 53/107/43 54/123/43
f 55/127/44 62/103/44 56/102/44 57/113/44
f 70/114/45 72/96/45 64/95/45 65/119/45
f 60/122/46 63/36/46 73/35/46 52/128/46
f 52/128/47 73/35/47 61/129/47 51/130/47
f 35/77/5 31/78/5 68/131/5 71/97/5
f 1/60/5 21/20/5 60/101/5 52/132/5
f 48/66/48 47/69/48 67/117/48 69/116/48
f 3/54/5 9/55/5 51/133/5 54/87/5
f 29/75/5 28/74/5 65/104/5 66/134/5
f 47/105/49 50/89/49 74/100/49 67/111/49
f 46/41/50 48/65/50 69/120/50 64/95/50
f 43/30/51 42/33/51 61/129/51 73/35/51
f 41/52/52 45/34/52 63/36/52 58/99/52
f 31/78/5 29/75/5 66/134/5 68/131/5
f 9/55/5 1/60/5 52/132/5 51/133/5
f 39/50/53 44/42/53 62/103/53 53/135/53
f 14/51/54 76/62/54 82/5/54 26/43/54
f 16/53/55 78/136/55 81/13/55 25/37/55
f 13/31/56 75/16/56 80/137/56 18/32/56
f 15/44/57 77/8/57 79/28/57 17/138/57
f 25/37/58 81/13/58 75/16/58 13/31/58
f 17/83/59 79/9/59 78/12/59 16/84/59
f 26/43/60 82/5/60 77/8/60 15/44/60
f 18/47/61 80/1/61 76/4/61 14/48/61
