# Blender 4.2.2 LTS
# www.blender.org
o Cube
v -0.465154 2.376939 0.832728
v -1.000000 3.798075 1.138454
v -0.465154 2.376939 -0.832728
v -1.000000 3.798075 -1.138454
v 1.000000 1.798075 0.832728
v 2.975055 3.798075 1.138454
v 1.000000 1.798075 -0.832728
v 2.975055 3.798075 -1.138454
v 8.813042 3.798075 -1.000000
v 7.696637 2.186613 -1.000000
v 7.696637 2.186613 1.000000
v 8.813042 3.798075 1.000000
v -0.465154 2.376939 4.264707
v -1.000000 3.798075 4.264707
v -1.000000 3.798075 -4.264707
v -0.465154 2.376939 -4.264707
v 1.000000 1.798075 -4.264707
v 1.000000 3.798075 -4.264707
v 1.000000 3.798075 4.264707
v 1.000000 1.798075 4.264707
v -1.000000 2.301502 5.145848
v -1.000000 3.294647 5.145848
v -1.000000 3.294647 -5.145848
v -1.000000 2.301502 -5.145848
v 1.000000 2.301502 -5.145848
v 1.000000 3.294647 -5.145848
v 1.000000 3.294647 5.145848
v 1.000000 2.301502 5.145848
v -2.213695 1.120139 4.264707
v -2.213695 4.476011 4.264707
v -2.213695 4.476011 -4.264707
v -2.213695 1.120139 -4.264707
v 3.730396 1.120139 -4.264707
v 3.730396 4.476011 -4.264707
v 3.730396 4.476011 4.264707
v 3.730396 1.120139 4.264707
v -1.976767 1.537726 4.801231
v -1.976767 4.058424 4.801231
v -1.976767 4.058424 -4.783589
v -1.976767 1.537726 -4.783589
v 2.769769 1.537726 -4.783589
v 2.769769 4.058424 -4.783589
v 2.769769 4.058424 4.801231
v 2.769769 1.537726 4.801231
v -2.981438 2.299240 -1.138454
v -2.981438 2.299240 1.138454
v -3.862873 3.804320 1.138454
v -3.862873 3.804320 -1.138454
v 1.225637 4.610454 -1.138454
v 1.225637 4.610454 1.138454
v -1.000000 2.301502 5.591915
v -1.000000 3.294647 5.591915
v -1.000000 3.294647 -5.591915
v -1.000000 2.301502 -5.591915
v 1.000000 2.301502 -5.591915
v 1.000000 3.294647 -5.591915
v 1.000000 3.294647 5.591915
v 1.000000 2.301502 5.591915
v 1.000000 1.798075 -1.661704
v 1.987528 3.798075 -2.701580
v -0.465154 2.376939 -1.661704
v -1.000000 3.798075 -2.701580
v -1.000000 3.798075 2.701580
v 1.987528 3.798075 2.701580
v 1.000000 1.798075 1.661704
v -0.465154 2.376939 1.661704
v 1.949763 1.059275 -0.832728
v -1.248469 0.559872 -0.832728
v -1.248469 0.559872 0.832728
v 1.949763 1.059275 0.832728
v 1.949763 1.059275 1.661704
v 1.949763 1.059275 -1.661704
v -1.248469 0.559872 -1.661704
v -1.248469 0.559872 1.661704
v 1.948955 0.209964 -0.832728
v -2.518860 0.213383 -0.832728
v -2.518860 0.213383 0.832728
v 1.948955 0.209964 0.832728
v 1.948955 0.209964 1.661704
v 1.948955 0.209964 -1.661704
v -2.518860 0.213383 -1.661704
v -2.518860 0.213383 1.661704
v 8.211575 0.553573 1.661704
v 8.211575 0.553573 0.832728
v 8.211575 0.553573 -0.832728
v 8.211575 0.553573 -1.661704
v 7.957230 0.207083 1.661704
v 7.957230 0.207083 0.832728
v 7.957230 0.207083 -0.832728
v 7.957230 0.207083 -1.661704
v 7.584585 0.207371 1.661704
v 7.585393 0.604143 1.661704
v 7.585393 0.604143 0.832728
v 7.584585 0.207371 0.832728
v 7.585393 0.604143 -0.832728
v 7.585393 0.604143 -1.661704
v 7.584585 0.207371 -1.661704
v 7.584585 0.207371 -0.832728
v 8.822049 1.388198 1.661704
v 8.822049 1.388198 0.832728
v 8.822049 1.388198 -0.832728
v 8.822049 1.388198 -1.661704
v 8.195868 1.157013 -0.832728
v 8.195868 1.157013 1.661704
v 8.195868 1.157013 0.832728
v 8.195868 1.157013 -1.661704
vn 0.0576 -0.0761 -0.9954
vn -0.3674 -0.9300 -0.0000
vn 0.0003 -0.0846 0.9964
vn 0.9320 -0.2875 -0.2209
vn -0.0000 -0.0000 -1.0000
vn 0.8220 -0.5695 -0.0000
vn 0.0579 -0.9983 -0.0000
vn -0.0000 1.0000 -0.0000
vn 0.0003 -0.0846 -0.9964
vn 0.1911 -0.0000 0.9816
vn 0.9320 -0.2875 0.2209
vn -0.9359 -0.3522 -0.0000
vn -1.0000 -0.0000 -0.0000
vn 0.2005 -0.0000 -0.9797
vn -0.0000 0.4285 -0.9035
vn -0.0000 -0.0000 1.0000
vn -0.0000 -0.4285 -0.9035
vn 0.4753 -0.0000 -0.8799
vn -0.0000 -0.7891 0.6142
vn -0.0000 -0.7790 -0.6270
vn -0.9148 -0.0000 0.4040
vn -0.0000 0.7891 0.6142
vn 0.4876 -0.0000 0.8731
vn -0.0000 0.7790 -0.6270
vn -0.9097 -0.0000 -0.4154
vn -0.0000 -0.4113 0.9115
vn -0.0000 0.4113 0.9115
vn -0.3327 -0.0000 0.9430
vn -0.3477 -0.0000 -0.9376
vn -0.8629 -0.5054 -0.0000
vn -0.1565 0.9877 -0.0000
vn 0.0576 -0.0761 0.9954
vn 0.4212 0.9070 -0.0000
vn 0.0309 -0.9995 -0.0000
vn 1.0000 -0.0000 -0.0000
vn -0.0000 -1.0000 -0.0000
vn 0.7172 -0.6308 -0.2961
vn 0.6140 0.7893 -0.0000
vn 0.7172 -0.6308 0.2961
vn -0.2631 0.9648 -0.0000
vn -0.9183 0.3959 -0.0000
vn -0.0008 -1.0000 -0.0000
vn 0.8061 -0.5917 -0.0000
vn -0.0005 -1.0000 -0.0000
vn 0.0805 0.9968 -0.0000
vn -0.3463 0.9381 -0.0000
vn -0.6713 0.7412 -0.0000
vn 0.8071 -0.5904 -0.0000
vt 0.608148 0.703565
vt 0.674453 0.689752
vt 0.660218 0.801071
vt 0.587944 0.829314
vt 0.888119 0.268537
vt 0.821091 0.268537
vt 0.821091 0.152720
vt 0.888119 0.152720
vt 0.821092 0.611432
vt 0.737255 0.704094
vt 0.737255 0.405810
vt 0.805944 0.352052
vt 0.094486 0.632712
vt 0.000000 0.678980
vt 0.000000 0.563163
vt 0.088018 0.563163
vt 0.574341 0.111332
vt 0.574341 0.178359
vt 0.500239 0.178359
vt 0.500239 0.111332
vt 0.635821 0.528905
vt 0.587944 0.600112
vt 0.899322 0.588277
vt 0.821092 0.588277
vt 0.821092 0.499290
vt 0.899322 0.499290
vt 0.581783 0.474007
vt 0.492796 0.474007
vt 0.101308 0.259376
vt 0.000000 0.259376
vt 0.006160 0.000000
vt 0.095148 0.000000
vt 0.821091 0.352052
vt 0.737255 0.259379
vt 0.752402 -0.000000
vt 0.821091 0.053758
vt 0.390984 0.626651
vt 0.346797 0.626651
vt 0.312716 0.547646
vt 0.424868 0.547646
vt 0.681337 0.186659
vt 0.707092 0.121482
vt 0.737255 0.000018
vt 0.737255 0.264454
vt 0.806804 0.747969
vt 0.806804 0.880701
vt 0.737255 0.880701
vt 0.737255 0.791844
vt 0.000000 0.752748
vt 0.094486 0.799016
vt 0.088018 0.868565
vt 0.000000 0.868565
vt 0.170857 0.935388
vt 0.170857 0.802655
vt 0.240406 0.846530
vt 0.240406 0.935388
vt 0.359415 0.874620
vt 0.293972 0.828370
vt 0.293972 0.758821
vt 0.359415 0.758803
vt 0.821091 0.083170
vt 0.886535 0.036884
vt 0.886535 0.152701
vt 0.821091 0.152720
vt 0.821092 0.588277
vt 0.888119 0.588277
vt 0.888119 0.704094
vt 0.821092 0.704094
vt 0.731185 0.792994
vt 0.731185 0.881852
vt 0.711338 0.881852
vt 0.711338 0.792994
vt 0.840939 0.268537
vt 0.840939 0.312464
vt 0.821091 0.312466
vt 0.821091 0.268539
vt 0.154134 0.636644
vt 0.198321 0.636644
vt 0.232199 0.715651
vt 0.120046 0.715651
vt 0.618107 0.121471
vt 0.587944 0.000000
vt 0.198311 0.547669
vt 0.232173 0.504491
vt 0.707092 0.385923
vt 0.618107 0.385935
vt 0.587944 0.264473
vt 0.737255 0.264454
vt 0.154123 0.547669
vt 0.120021 0.504491
vt 0.707092 0.474897
vt 0.737255 0.528886
vt 0.250619 0.758781
vt 0.101308 0.758781
vt 0.911991 0.152720
vt 0.911991 0.416361
vt 0.888119 0.372280
vt 0.888119 0.161754
vt 0.911206 0.851918
vt 0.911206 0.588277
vt 0.934293 0.597312
vt 0.934293 0.807837
vt 0.581328 0.774411
vt 0.581328 0.922842
vt 0.557468 0.905521
vt 0.557468 0.794030
vt 0.735210 0.528905
vt 0.735210 0.792994
vt 0.711338 0.783470
vt 0.711338 0.572586
vt 0.293972 0.504484
vt 0.443283 0.504484
vt 0.888119 0.852367
vt 0.888119 0.588277
vt 0.911206 0.631958
vt 0.911206 0.842842
vt 0.899322 0.588277
vt 0.899322 0.439846
vt 0.922421 0.459459
vt 0.922421 0.570950
vt 0.618107 0.210445
vt 0.587944 0.264436
vt 0.346786 0.715624
vt 0.312689 0.758803
vt 0.390973 0.715624
vt 0.424841 0.758803
vt 0.643862 0.451111
vt 0.587944 0.528905
vt 0.557468 0.875719
vt 0.486636 0.875754
vt 0.486636 0.774446
vt 0.557468 0.774411
vt 0.101308 0.335152
vt 0.101308 0.563163
vt 0.000000 0.563163
vt 0.000000 0.335152
vt 0.486636 0.634842
vt 0.552942 0.648665
vt 0.573147 0.774411
vt 0.500872 0.746170
vt 0.525269 0.474007
vt 0.573147 0.545213
vt 0.486636 -0.000000
vt 0.587944 -0.000000
vt 0.865279 0.499290
vt 0.821092 0.499284
vt 0.821092 0.410310
vt 0.865279 0.410315
vt 0.821092 0.321337
vt 0.865279 0.321331
vt 0.865279 0.410304
vt 0.821092 0.410310
vt 0.860786 0.312244
vt 0.860786 0.268537
vt 0.880633 0.268537
vt 0.880633 0.312244
vt 0.865279 0.410189
vt 0.865279 0.321331
vt 0.885126 0.321331
vt 0.885126 0.410189
vt 0.840939 0.312466
vt 0.840939 0.268539
vt 0.860786 0.312464
vt 0.885126 0.410189
vt 0.885126 0.498896
vt 0.865279 0.498896
vt 0.865279 0.410189
vt 0.056731 0.868565
vt 0.056731 0.912272
vt 0.036884 0.912272
vt 0.036884 0.868565
vt 0.911991 0.241427
vt 0.931838 0.152720
vt 0.931838 0.241427
vt 0.359415 0.911504
vt 0.293972 0.897920
vt 0.101308 0.935388
vt 0.101308 0.758781
vt 0.100953 0.702261
vt 0.000000 0.715864
vt 0.197640 0.091302
vt 0.171935 0.156499
vt 0.139096 0.198772
vt 0.116767 0.056506
vt 0.711338 0.875447
vt 0.674453 0.875447
vt 0.674453 0.835022
vt 0.711338 0.835022
vt 0.821091 0.013621
vt 0.886535 -0.000000
vt 0.000000 0.715864
vt 0.100953 0.729466
vt 0.876353 0.704094
vt 0.876353 0.880701
vt 0.116809 0.477357
vt 0.119038 0.449498
vt 0.143657 0.476641
vt 0.153965 0.504491
vt 0.888119 0.852367
vt 0.925003 0.852367
vt 0.925003 0.909640
vt 0.888119 0.909640
vt 0.319677 0.156497
vt 0.293972 0.091301
vt 0.374844 0.056505
vt 0.352516 0.198770
vt 0.293972 0.091302
vt 0.268267 0.156499
vt 0.235428 0.198772
vt 0.213099 0.056506
vt 0.435996 0.874668
vt 0.435996 0.911552
vt 0.416009 0.156497
vt 0.390304 0.091301
vt 0.471176 0.056505
vt 0.448848 0.198770
vt 0.963116 0.000048
vt 0.963116 0.036932
vt 1.000000 0.346542
vt 0.963116 0.346542
vt 0.963116 0.306117
vt 1.000000 0.306117
vt 0.443283 0.702659
vt 0.443283 0.504484
vt 0.480167 0.504484
vt 0.480167 0.702659
vt 0.287503 0.504491
vt 0.287503 0.702666
vt 0.250619 0.702666
vt 0.250619 0.504491
vt 0.486636 -0.000000
vt 0.486636 0.198758
vt 0.390304 -0.000000
vt 0.390304 0.198758
vt 0.101308 0.198760
vt 0.101308 0.000000
vt 0.372574 0.449492
vt 0.390227 0.449467
vt 0.390227 0.466045
vt 0.374803 0.477350
vt 0.197640 0.198760
vt 0.197640 -0.000000
vt 0.000000 0.868565
vt 0.036884 0.868565
vt 0.036884 0.925838
vt 0.000000 0.925838
vt 0.587944 0.870043
vt 0.624828 0.870043
vt 0.624828 0.886957
vt 0.587944 0.886957
vt 0.624828 0.870043
vt 0.661712 0.870043
vt 0.661712 0.886957
vt 0.624828 0.886957
vt 0.250619 0.952635
vt 0.287503 0.952635
vt 0.287503 0.969164
vt 0.250619 0.969164
vt 0.197716 0.449474
vt 0.215370 0.449498
vt 0.213141 0.477357
vt 0.197716 0.466051
vt 0.239989 0.476641
vt 0.250296 0.504491
vt 0.101384 0.449474
vt 0.101384 0.466052
vt 0.443283 0.952628
vt 0.480167 0.952628
vt 0.480167 0.969157
vt 0.443283 0.969157
vt 0.468906 0.449492
vt 0.486559 0.449467
vt 0.486559 0.466045
vt 0.471135 0.477350
vt 0.674453 0.585729
vt 0.711338 0.585729
vt 0.963116 0.056824
vt 1.000000 0.056824
vt 0.711338 0.557280
vt 0.674453 0.557280
vt 0.674453 0.528905
vt 0.711338 0.528905
vt 1.000000 0.028375
vt 0.963116 0.028375
vt 0.963116 0.000000
vt 1.000000 0.000000
vt 0.624828 0.829313
vt 0.661712 0.829313
vt 0.433979 0.504484
vt 0.444287 0.476634
vt 0.337647 0.504484
vt 0.347955 0.476634
vt 0.587944 0.829313
vt 0.624828 0.829313
s 0
f 4/1/1 3/2/1 45/3/1 48/4/1
f 59/5/2 61/6/2 16/7/2 17/8/2
f 6/9/3 5/10/3 11/11/3 12/12/3
f 60/13/4 59/14/4 17/15/4 18/16/4
f 3/17/2 7/18/2 5/19/2 1/20/2
f 8/21/5 4/1/5 48/4/5 49/22/5
f 10/23/6 9/24/6 12/25/6 11/26/6
f 5/19/7 7/18/7 10/27/7 11/28/7
f 8/29/8 6/30/8 12/31/8 9/32/8
f 7/33/9 8/34/9 9/35/9 10/36/9
f 27/37/10 28/38/10 44/39/10 43/40/10
f 13/41/5 20/42/5 36/43/5 29/44/5
f 64/45/8 63/46/8 14/47/8 19/48/8
f 65/49/11 64/50/11 19/51/11 20/52/11
f 62/53/8 60/54/8 18/55/8 15/56/8
f 61/57/12 62/58/12 15/59/12 16/60/12
f 63/61/12 66/62/12 13/63/12 14/64/12
f 66/65/2 65/66/2 20/67/2 13/68/2
f 27/69/8 22/70/8 52/71/8 57/72/8
f 22/73/13 21/74/13 51/75/13 52/76/13
f 25/77/14 26/78/14 42/79/14 41/80/14
f 20/42/5 19/81/5 35/82/5 36/43/5
f 26/78/15 23/83/15 39/84/15 42/79/15
f 18/85/16 17/86/16 33/87/16 34/88/16
f 24/89/17 25/77/17 41/80/17 40/90/17
f 15/91/16 18/85/16 34/88/16 31/92/16
f 34/93/18 33/94/18 41/80/18 42/79/18
f 29/95/19 36/96/19 44/97/19 37/98/19
f 33/99/20 32/100/20 40/101/20 41/102/20
f 30/103/21 29/104/21 37/105/21 38/106/21
f 35/107/22 30/108/22 38/109/22 43/110/22
f 36/111/23 35/112/23 43/40/23 44/39/23
f 31/113/24 34/114/24 42/115/24 39/116/24
f 32/117/25 31/118/25 39/119/25 40/120/25
f 19/81/5 14/121/5 30/122/5 35/82/5
f 28/38/26 21/123/26 37/124/26 44/39/26
f 14/121/5 13/41/5 29/44/5 30/122/5
f 22/125/27 27/37/27 43/40/27 38/126/27
f 16/127/16 15/91/16 31/92/16 32/128/16
f 21/123/28 22/125/28 38/126/28 37/124/28
f 17/86/16 16/127/16 32/128/16 33/87/16
f 23/83/29 24/89/29 40/90/29 39/84/29
f 46/129/30 47/130/30 48/131/30 45/132/30
f 49/133/31 48/134/31 47/135/31 50/136/31
f 1/137/32 2/138/32 47/139/32 46/140/32
f 6/30/33 8/29/33 49/133/33 50/136/33
f 2/138/16 6/141/16 50/142/16 47/139/16
f 3/17/34 1/20/34 46/143/34 45/144/34
f 54/145/5 53/146/5 56/147/5 55/148/5
f 58/149/16 57/150/16 52/151/16 51/152/16
f 28/153/35 27/154/35 57/155/35 58/156/35
f 23/157/8 26/158/8 56/159/8 53/160/8
f 24/161/13 23/162/13 53/154/13 54/163/13
f 21/164/36 28/165/36 58/166/36 51/167/36
f 26/168/35 25/169/35 55/170/35 56/171/35
f 25/172/36 24/95/36 54/173/36 55/174/36
f 3/175/12 4/176/12 62/58/12 61/57/12
f 4/177/8 8/178/8 60/54/8 62/53/8
f 8/179/37 7/180/37 59/14/37 60/13/37
f 61/181/5 59/182/5 72/183/5 73/184/5
f 5/185/38 65/186/38 71/187/38 70/188/38
f 2/189/12 1/190/12 66/62/12 63/61/12
f 5/191/39 6/192/39 64/50/39 65/49/39
f 6/193/8 2/194/8 63/46/8 64/45/8
f 86/195/5 96/196/5 106/197/5 102/198/5
f 68/199/40 73/200/40 81/201/40 76/202/40
f 65/203/16 66/204/16 74/205/16 71/206/16
f 1/207/5 5/208/5 70/209/5 69/210/5
f 3/175/41 61/57/41 73/211/41 68/212/41
f 7/213/16 3/214/16 68/215/16 67/216/16
f 66/62/41 1/190/41 69/217/41 74/218/41
f 59/219/38 7/220/38 67/221/38 72/222/38
f 75/223/42 76/224/42 81/225/42 80/226/42
f 77/227/42 78/228/42 79/229/42 82/230/42
f 67/216/16 68/215/16 76/231/16 75/232/16
f 71/206/16 74/205/16 82/233/16 79/234/16
f 73/184/5 72/183/5 80/235/5 81/236/5
f 92/237/16 91/238/16 87/239/16 83/240/16
f 69/210/5 70/209/5 78/241/5 77/242/5
f 74/243/40 69/244/40 77/245/40 82/246/40
f 84/247/43 83/248/43 87/249/43 88/250/43
f 86/251/43 85/252/43 89/253/43 90/254/43
f 91/255/42 94/256/42 88/257/42 87/258/42
f 94/259/5 93/260/5 84/261/5 88/262/5
f 84/261/5 93/260/5 105/263/5 100/264/5
f 97/265/5 96/196/5 86/195/5 90/266/5
f 98/267/42 97/268/42 90/269/42 89/270/42
f 95/271/16 98/272/16 89/273/16 85/274/16
f 78/241/5 70/209/5 93/260/5 94/259/5
f 79/229/44 78/228/44 94/256/44 91/255/44
f 71/206/16 79/234/16 91/238/16 92/237/16
f 70/188/45 71/187/45 92/275/45 93/276/45
f 67/216/16 75/232/16 98/272/16 95/271/16
f 75/223/44 80/226/44 97/268/44 98/267/44
f 80/235/5 72/183/5 96/196/5 97/265/5
f 72/222/45 67/221/45 95/277/45 96/278/45
f 105/279/46 104/280/46 99/281/46 100/282/46
f 106/283/46 103/284/46 101/285/46 102/286/46
f 93/276/47 92/275/47 104/280/47 105/279/47
f 85/252/48 86/251/48 102/287/48 101/288/48
f 95/271/16 85/274/16 101/289/16 103/290/16
f 92/237/16 83/240/16 99/291/16 104/292/16
f 83/248/48 84/247/48 100/293/48 99/294/48
f 96/278/47 95/277/47 103/284/47 106/283/47
